HIERARCHY
ROOT Hips
{
	OFFSET 0.000000 97.167313 0.000000
	CHANNELS 6 Xposition Yposition Zposition Xrotation Yrotation Zrotation
	JOINT Spine
	{
		OFFSET 0.000000 13.784798 0.064400
		CHANNELS 3 Xrotation Yrotation Zrotation
		JOINT Spine1
		{
			OFFSET 0.000000 12.037903 0.404700
			CHANNELS 3 Xrotation Yrotation Zrotation
			JOINT Spine2
			{
				OFFSET 0.000000 17.795601 0.420200
				CHANNELS 3 Xrotation Yrotation Zrotation
				JOINT Neck
				{
					OFFSET 0.000000 39.131302 11.954600
					CHANNELS 3 Xrotation Yrotation Zrotation
					JOINT Head
					{
						OFFSET 0.000000 14.456192 15.627699
						CHANNELS 3 Xrotation Yrotation Zrotation
						JOINT HeadTop_End
						{
							OFFSET 0.000000 15.703506 7.603401
							CHANNELS 3 Xrotation Yrotation Zrotation
							End Site
							{
								OFFSET 0.000000 17.447403 0.000000
							}
						}
					}
				}
				JOINT LeftShoulder
				{
					OFFSET 17.399500 24.608795 1.168800
					CHANNELS 3 Xrotation Yrotation Zrotation
					JOINT LeftArm
					{
						OFFSET 18.980635 5.765305 1.818600
						CHANNELS 3 Xrotation Yrotation Zrotation
						JOINT LeftForeArm
						{
							OFFSET 49.290169 0.000000 0.000000
							CHANNELS 3 Xrotation Yrotation Zrotation
							JOINT LeftHand
							{
								OFFSET 31.562012 0.000000 0.000000
								CHANNELS 3 Xrotation Yrotation Zrotation
								JOINT LeftHandThumb1
								{
									OFFSET 6.133995 -4.388519 7.076070
									CHANNELS 3 Xrotation Yrotation Zrotation
									JOINT LeftHandThumb2
									{
										OFFSET 6.037666 -3.485840 3.485847
										CHANNELS 3 Xrotation Yrotation Zrotation
										JOINT LeftHandThumb3
										{
											OFFSET 6.496506 -3.750763 3.750761
											CHANNELS 3 Xrotation Yrotation Zrotation
											JOINT LeftHandThumb4
											{
												OFFSET 5.616882 -3.242905 3.242910
												CHANNELS 3 Xrotation Yrotation Zrotation
												End Site
												{
													OFFSET -1.254608 7.132141 0.375429
												}
											}
										}
									}
								}
								JOINT LeftHandPinky1
								{
									OFFSET 18.920792 -0.453171 -11.426712
									CHANNELS 3 Xrotation Yrotation Zrotation
									JOINT LeftHandPinky2
									{
										OFFSET 4.919586 0.000000 0.000000
										CHANNELS 3 Xrotation Yrotation Zrotation
										JOINT LeftHandPinky3
										{
											OFFSET 5.233047 0.000000 0.000000
											CHANNELS 3 Xrotation Yrotation Zrotation
											JOINT LeftHandPinky4
											{
												OFFSET 5.571716 0.000000 0.000000
												CHANNELS 3 Xrotation Yrotation Zrotation
												End Site
												{
													OFFSET -3.459808 4.342407 -0.466164
												}
											}
										}
									}
								}
								JOINT LeftHandRing1
								{
									OFFSET 22.726120 -0.094986 -6.500475
									CHANNELS 3 Xrotation Yrotation Zrotation
									JOINT LeftHandRing2
									{
										OFFSET 6.408615 0.000000 0.000000
										CHANNELS 3 Xrotation Yrotation Zrotation
										JOINT LeftHandRing3
										{
											OFFSET 6.150223 0.000000 0.000000
											CHANNELS 3 Xrotation Yrotation Zrotation
											JOINT LeftHandRing4
											{
												OFFSET 6.145386 0.000000 0.000000
												CHANNELS 3 Xrotation Yrotation Zrotation
												End Site
												{
													OFFSET -3.671402 4.923981 -0.202372
												}
											}
										}
									}
								}
								JOINT LeftHandMiddle1
								{
									OFFSET 23.373947 0.000000 0.000001
									CHANNELS 3 Xrotation Yrotation Zrotation
									JOINT LeftHandMiddle2
									{
										OFFSET 6.996567 0.000000 0.000000
										CHANNELS 3 Xrotation Yrotation Zrotation
										JOINT LeftHandMiddle3
										{
											OFFSET 7.015945 0.000000 0.000000
											CHANNELS 3 Xrotation Yrotation Zrotation
											JOINT LeftHandMiddle4
											{
												OFFSET 7.721573 0.000000 0.000000
												CHANNELS 3 Xrotation Yrotation Zrotation
												End Site
												{
													OFFSET -4.651108 6.158463 0.251582
												}
											}
										}
									}
								}
								JOINT LeftHandIndex1
								{
									OFFSET 21.310577 -0.490082 6.209344
									CHANNELS 3 Xrotation Yrotation Zrotation
									JOINT LeftHandIndex2
									{
										OFFSET 7.536453 0.000000 0.000000
										CHANNELS 3 Xrotation Yrotation Zrotation
										JOINT LeftHandIndex3
										{
											OFFSET 7.512344 0.000000 0.000000
											CHANNELS 3 Xrotation Yrotation Zrotation
											JOINT LeftHandIndex4
											{
												OFFSET 10.212402 0.000000 0.000001
												CHANNELS 3 Xrotation Yrotation Zrotation
												End Site
												{
													OFFSET -5.180801 8.690506 1.388433
												}
											}
										}
									}
								}
							}
						}
					}
				}
				JOINT RightShoulder
				{
					OFFSET -17.399500 24.608795 1.168800
					CHANNELS 3 Xrotation Yrotation Zrotation
					JOINT RightArm
					{
						OFFSET -18.980635 5.765305 1.818600
						CHANNELS 3 Xrotation Yrotation Zrotation
						JOINT RightForeArm
						{
							OFFSET -49.290169 0.000000 0.000000
							CHANNELS 3 Xrotation Yrotation Zrotation
							JOINT RightHand
							{
								OFFSET -31.562012 0.000000 0.000000
								CHANNELS 3 Xrotation Yrotation Zrotation
								JOINT RightHandThumb1
								{
									OFFSET -6.133995 -4.388519 7.076070
									CHANNELS 3 Xrotation Yrotation Zrotation
									JOINT RightHandThumb2
									{
										OFFSET -6.037666 -3.485840 3.485847
										CHANNELS 3 Xrotation Yrotation Zrotation
										JOINT RightHandThumb3
										{
											OFFSET -6.496506 -3.750763 3.750761
											CHANNELS 3 Xrotation Yrotation Zrotation
											JOINT RightHandThumb4
											{
												OFFSET -5.616882 -3.242905 3.242910
												CHANNELS 3 Xrotation Yrotation Zrotation
												End Site
												{
													OFFSET 1.254608 7.132141 0.375429
												}
											}
										}
									}
								}
								JOINT RightHandIndex1
								{
									OFFSET -21.310577 -0.490082 6.209344
									CHANNELS 3 Xrotation Yrotation Zrotation
									JOINT RightHandIndex2
									{
										OFFSET -7.536453 0.000000 0.000000
										CHANNELS 3 Xrotation Yrotation Zrotation
										JOINT RightHandIndex3
										{
											OFFSET -7.512344 0.000000 0.000000
											CHANNELS 3 Xrotation Yrotation Zrotation
											JOINT RightHandIndex4
											{
												OFFSET -10.212402 0.000000 0.000001
												CHANNELS 3 Xrotation Yrotation Zrotation
												End Site
												{
													OFFSET 5.180801 8.690506 1.388433
												}
											}
										}
									}
								}
								JOINT RightHandMiddle1
								{
									OFFSET -23.373947 0.000000 0.000001
									CHANNELS 3 Xrotation Yrotation Zrotation
									JOINT RightHandMiddle2
									{
										OFFSET -6.996567 0.000000 0.000000
										CHANNELS 3 Xrotation Yrotation Zrotation
										JOINT RightHandMiddle3
										{
											OFFSET -7.015945 0.000000 0.000000
											CHANNELS 3 Xrotation Yrotation Zrotation
											JOINT RightHandMiddle4
											{
												OFFSET -7.721573 0.000000 0.000000
												CHANNELS 3 Xrotation Yrotation Zrotation
												End Site
												{
													OFFSET 4.651108 6.158463 0.251582
												}
											}
										}
									}
								}
								JOINT RightHandRing1
								{
									OFFSET -22.726120 -0.094986 -6.500475
									CHANNELS 3 Xrotation Yrotation Zrotation
									JOINT RightHandRing2
									{
										OFFSET -6.408615 0.000000 0.000000
										CHANNELS 3 Xrotation Yrotation Zrotation
										JOINT RightHandRing3
										{
											OFFSET -6.150223 0.000000 0.000000
											CHANNELS 3 Xrotation Yrotation Zrotation
											JOINT RightHandRing4
											{
												OFFSET -6.145386 0.000000 0.000000
												CHANNELS 3 Xrotation Yrotation Zrotation
												End Site
												{
													OFFSET 3.671402 4.923981 -0.202372
												}
											}
										}
									}
								}
								JOINT RightHandPinky1
								{
									OFFSET -18.920792 -0.453171 -11.426712
									CHANNELS 3 Xrotation Yrotation Zrotation
									JOINT RightHandPinky2
									{
										OFFSET -4.919586 0.000000 0.000000
										CHANNELS 3 Xrotation Yrotation Zrotation
										JOINT RightHandPinky3
										{
											OFFSET -5.233047 0.000000 0.000000
											CHANNELS 3 Xrotation Yrotation Zrotation
											JOINT RightHandPinky4
											{
												OFFSET -5.571716 0.000000 0.000000
												CHANNELS 3 Xrotation Yrotation Zrotation
												End Site
												{
													OFFSET 3.459808 4.342407 -0.466164
												}
											}
										}
									}
								}
							}
						}
					}
				}
			}
		}
	}
	JOINT LeftUpLeg
	{
		OFFSET 19.899099 -7.885101 -3.429500
		CHANNELS 3 Xrotation Yrotation Zrotation
		JOINT LeftLeg
		{
			OFFSET 1.745560 -36.997807 10.304700
			CHANNELS 3 Xrotation Yrotation Zrotation
			JOINT LeftFoot
			{
				OFFSET -1.745558 -29.803308 -13.615400
				CHANNELS 3 Xrotation Yrotation Zrotation
				JOINT LeftToeBase
				{
					OFFSET 1.181900 -18.539904 15.226099
					CHANNELS 3 Xrotation Yrotation Zrotation
					JOINT LeftToe_End
					{
						OFFSET -0.863701 1.402801 16.534700
						CHANNELS 3 Xrotation Yrotation Zrotation
						End Site
						{
							OFFSET 0.000000 16.616566 0.000000
						}
					}
				}
			}
		}
	}
	JOINT RightUpLeg
	{
		OFFSET -19.899099 -7.885101 -3.429500
		CHANNELS 3 Xrotation Yrotation Zrotation
		JOINT RightLeg
		{
			OFFSET -1.745560 -36.997807 10.304700
			CHANNELS 3 Xrotation Yrotation Zrotation
			JOINT RightFoot
			{
				OFFSET 1.745558 -29.803308 -13.615400
				CHANNELS 3 Xrotation Yrotation Zrotation
				JOINT RightToeBase
				{
					OFFSET -1.181900 -18.539904 15.226099
					CHANNELS 3 Xrotation Yrotation Zrotation
					JOINT RightToe_End
					{
						OFFSET 0.863701 1.402801 16.534700
						CHANNELS 3 Xrotation Yrotation Zrotation
						End Site
						{
							OFFSET 0.000000 16.616566 0.000000
						}
					}
				}
			}
		}
	}
}
MOTION
Frames: 4
Frame Time: 0.033333
2.785440 81.974808 4.582356 5.323232 -6.840090 -1.533180 9.142064 3.472701 5.441213 6.475188 1.245030 1.057192 6.471445 1.202156 1.098540 2.133639 -0.612721 -1.384496 -3.637959 -2.725486 0.126926 0.000002 0.000000 -0.000000 1.722793 -9.915063 -14.938940 -26.942460 2.630648 -71.940026 0.000012 -31.031288 -0.000015 13.812969 3.247851 3.605288 -6.000719 -6.126807 4.616734 7.611109 24.884939 2.404812 -4.383208 25.960685 19.454342 0.000001 0.000001 -0.000001 0.820470 5.237531 -29.403155 0.162679 1.372387 -13.519834 0.462548 2.283474 -22.899386 -0.000001 0.000000 -0.000006 0.497540 4.571299 -22.150794 0.640355 2.665135 -27.016050 0.462549 2.283473 -22.899425 -0.000001 0.000000 -0.000000 0.227917 3.736622 -13.565754 0.647511 2.679133 -27.169712 0.040227 0.686111 -6.710892 -0.000001 0.000000 0.000004 0.627452 4.865856 -25.301811 0.596891 2.578231 -26.066000 0.209947 1.555811 -15.369527 -0.000002 0.000001 0.000001 4.830922 17.858052 5.566069 -15.198228 0.576462 66.755018 -0.000001 21.881884 0.000009 11.551346 9.546663 1.170310 -7.540280 -3.885184 -4.751899 7.955471 -28.077788 -3.121239 -4.007009 -18.468394 -17.389996 -0.000001 -0.000001 0.000002 0.077571 -1.078489 14.292160 0.320889 -1.700394 21.371524 0.152980 -1.185051 14.710371 -0.000000 0.000004 0.000001 0.522803 -4.330233 26.060445 0.321177 -1.701148 21.381501 0.457708 -2.015192 25.590255 0.000001 0.000004 -0.000008 2.081840 -6.655521 34.808720 0.321872 -1.702911 21.404857 0.457726 -2.015229 25.590748 0.000001 0.000005 0.000000 1.506450 -7.629416 42.127890 0.321172 -1.701131 21.381410 0.457707 -2.015186 25.590169 0.000000 0.000000 0.000001 -35.275929 7.129018 22.867632 58.198997 3.636984 -3.011569 9.817641 9.144365 -14.414675 -32.607016 0.135373 -3.928444 -0.000000 0.000002 -0.000000 -29.033601 -5.777961 4.626390 45.011305 -0.858329 -1.741225 -23.178372 -6.485630 -2.683895 4.200534 0.000184 -0.003802 -0.000000 -0.000003 0.000000 
2.886893 81.869370 4.609469 6.256610 -7.509464 -0.575932 8.778428 4.083858 4.854968 6.432723 1.576142 0.974452 6.431006 1.545314 0.909733 2.018592 -0.636731 -1.241927 -5.742864 -2.038890 -0.093822 -0.000001 0.000000 0.000000 2.370342 -9.623896 -13.438757 -26.611824 -1.394565 -67.634869 0.000015 -36.797501 0.000019 14.411358 3.069016 3.383805 -5.561279 -5.974430 4.454301 7.611109 24.884939 2.404815 -4.383209 25.960680 19.454341 -0.000002 0.000002 0.000003 0.877655 5.336299 -30.520885 0.195178 1.501057 -14.815713 0.511281 2.395477 -24.093340 0.000002 0.000007 0.000004 0.548692 4.692578 -23.438744 0.714284 2.805265 -28.565251 0.520555 2.416059 -24.313897 -0.000005 0.000001 0.000007 0.264856 3.881269 -15.024869 0.738227 2.848759 -29.050734 0.063137 0.858701 -8.410379 0.000003 -0.000000 0.000009 0.676982 4.967687 -26.410209 0.706088 2.790173 -28.397290 0.270288 1.760589 -17.454637 -0.000002 0.000003 0.000001 4.872874 17.479057 5.858573 -12.164864 -1.782008 65.894919 0.000009 23.501023 -0.000036 9.902809 9.946378 0.790765 -7.093011 -4.085426 -4.471868 7.893944 -27.538317 -3.087257 -3.964026 -18.926263 -17.480971 0.000003 0.000001 0.000002 0.016375 -0.742103 13.256254 0.336703 -1.740289 21.899065 0.156899 -1.199888 14.898811 0.000001 -0.000001 -0.000002 0.491296 -4.264686 25.165781 0.353746 -1.782059 22.453260 0.479501 -2.060070 26.203327 -0.000003 0.000002 -0.000011 2.110057 -6.749412 34.011982 0.350737 -1.774771 22.356312 0.477507 -2.055989 26.147489 -0.000000 0.000002 -0.000003 1.632174 -7.742603 41.419896 0.347143 -1.765998 22.239683 0.475776 -2.052462 26.099329 0.000000 -0.000001 0.000007 -35.976717 8.405282 22.655615 57.346617 2.819152 -3.118024 10.869569 8.460058 -14.936276 -33.157826 0.212730 -4.829270 -0.000000 0.000003 -0.000000 -30.726002 -5.657685 3.817202 45.763968 -0.062723 -1.821766 -23.186346 -6.373626 -2.922650 4.193981 0.000198 -0.003789 0.000000 -0.000000 0.000000 
3.301792 81.802551 4.481702 7.181540 -8.076854 0.355712 8.381205 4.757469 4.292008 6.380865 1.973843 0.873944 6.382780 1.952741 0.681666 1.947388 -0.639790 -1.113355 -7.336466 -0.292152 -0.917592 0.000000 0.000000 0.000000 3.590375 -9.287324 -10.287734 -21.850284 -9.186277 -56.831600 0.000023 -50.221524 0.000008 15.901727 2.578002 2.841032 -4.395098 -5.578283 4.007236 7.611111 24.884937 2.404818 -4.383209 25.960682 19.454337 -0.000001 0.000001 0.000000 1.045153 5.602519 -33.602413 0.300125 1.852745 -18.400787 0.658696 2.700800 -27.408009 -0.000000 -0.000003 -0.000006 0.702218 5.017702 -26.958603 0.936388 3.178952 -32.818482 0.697150 2.773574 -28.212940 0.000003 0.000001 0.000003 0.383036 4.266898 -18.968991 1.012429 3.293686 -34.165269 0.151718 1.325906 -13.053432 -0.000003 -0.000004 0.000004 0.818521 5.234102 -29.364452 1.040981 3.335294 -34.659033 0.470191 2.301476 -23.090672 0.000000 0.000001 0.000001 4.917175 16.522211 6.628863 -6.191806 -6.890552 65.625421 0.000004 27.589523 0.000016 6.499108 10.885817 0.765849 -5.945986 -4.587354 -3.737094 7.735613 -26.152497 -2.997780 -3.856508 -20.102888 -17.714172 0.000002 0.000000 0.000002 -0.091136 0.129599 10.596345 0.380036 -1.844358 23.284045 0.167603 -1.239399 15.401614 0.000000 0.000000 0.000001 0.413501 -4.090351 22.817495 0.448007 -1.994832 25.313091 0.540782 -2.180078 27.859710 0.000001 0.000002 -0.000008 2.168348 -7.003914 31.900289 0.434158 -1.965279 24.911915 0.533204 -2.165670 27.659572 0.000003 0.000001 -0.000003 1.950936 -8.061849 39.530229 0.422115 -1.939165 24.558603 0.526755 -2.153353 27.488612 0.000002 -0.000003 0.000000 -36.524389 9.878614 22.142478 56.089117 0.984323 -3.176280 12.079015 8.023190 -15.992929 -35.416457 0.265436 -3.168434 -0.000000 -0.000001 0.000000 -32.574139 -5.411430 2.756992 46.399989 0.746674 -1.882756 -22.892100 -6.348722 -2.878681 4.190752 0.000201 -0.003795 -0.000000 -0.000005 0.000000 
3.700285 81.777977 4.102969 7.958180 -8.014987 1.137256 7.873838 5.567264 3.789354 6.290113 2.623636 0.704568 6.300906 2.596998 0.303151 2.042243 -0.620373 -1.028777 -8.118638 2.090045 -2.308595 -0.000001 -0.000000 -0.000000 4.689503 -8.879937 -7.510409 -11.477230 -13.976622 -44.486747 0.000042 -65.697274 0.000020 17.845321 1.838031 2.156393 -2.718421 -5.031017 3.324191 7.611107 24.884942 2.404810 -4.383207 25.960675 19.454339 0.000001 0.000003 0.000001 1.325903 5.987787 -38.276011 0.501666 2.373912 -23.862482 0.917758 3.149908 -32.480623 0.000003 0.000001 -0.000000 0.969120 5.485618 -32.236171 1.322183 3.708487 -39.234300 1.010169 3.290350 -34.125684 0.000001 -0.000001 0.000005 0.605507 4.819077 -24.795941 1.491408 3.906131 -41.782306 0.354416 2.008487 -20.011945 0.000001 -0.000001 0.000004 1.047525 5.606028 -33.644211 1.633711 4.059391 -43.830786 0.860185 3.057721 -31.417641 -0.000000 0.000002 -0.000003 4.925217 15.257495 7.709486 -0.514607 -12.051563 66.555836 0.000009 33.048287 -0.000009 3.915064 11.574538 0.682987 -4.377082 -5.245966 -2.693619 7.517392 -24.251428 -2.869779 -3.716034 -21.717961 -18.033298 -0.000004 -0.000001 -0.000001 -0.121703 1.335860 6.947595 0.445717 -1.989989 25.247282 0.183734 -1.296556 16.130890 0.000002 -0.000001 -0.000001 0.315669 -3.838136 19.490498 0.603364 -2.294474 29.462520 0.637503 -2.353855 30.304597 0.000000 -0.000001 -0.000001 2.209787 -7.381618 28.864762 0.571406 -2.237003 28.654163 0.621293 -2.325903 29.907360 -0.000001 -0.000001 -0.000005 2.368169 -8.567211 36.787382 0.545431 -2.188853 27.981692 0.607546 -2.301867 29.566950 0.000000 -0.000001 0.000004 -36.468064 11.616070 21.232575 55.370807 0.380620 -3.228615 12.200922 6.837993 -15.564000 -37.270481 0.245386 -2.107257 -0.000000 -0.000000 -0.000000 -34.241251 -5.115495 1.716985 46.863902 0.949048 -1.927951 -22.488224 -6.394891 -2.564585 4.192795 0.000192 -0.003806 -0.000000 -0.000002 0.000000 
